<?xml version="1.0" standalone="no"?>
<!DOCTYPE svg PUBLIC "-//W3C//DTD SVG 20010904//EN"
 "http://www.w3.org/TR/2001/REC-SVG-20010904/DTD/svg10.dtd">
<svg version="1.0" xmlns="http://www.w3.org/2000/svg"
 width="579.000000pt" height="431.000000pt" viewBox="0 0 579.000000 431.000000"
 preserveAspectRatio="xMidYMid meet">

<g transform="translate(0.000000,431.000000) scale(0.100000,-0.100000)"
fill="#000000" stroke="none">
<path d="M3183 2215 c-6 -7 -13 -48 -14 -91 l-2 -79 54 -8 c30 -4 177 -6 328
-5 l273 3 34 40 c18 22 41 56 50 75 9 19 23 42 31 52 9 10 11 18 4 22 -5 4
-12 2 -16 -4 -9 -15 -38 -13 -29 3 4 6 -2 4 -13 -6 -16 -14 -26 -16 -40 -8
-12 6 -136 10 -326 10 -169 0 -310 2 -315 4 -4 3 -12 -1 -19 -8z"/>
<path d="M3997 1717 c-13 -16 -20 -18 -29 -9 -8 8 -15 9 -25 1 -9 -8 -13 -8
-13 -1 0 7 -123 10 -393 10 -216 -1 -399 2 -405 6 -17 10 -66 -27 -131 -96
-29 -32 -68 -67 -87 -79 -19 -11 -34 -25 -34 -30 0 -5 201 -9 494 -9 402 0
497 3 508 14 7 7 31 39 53 71 22 31 48 65 57 75 9 10 14 21 11 24 -3 3 0 12 7
21 7 9 11 17 9 20 -2 2 -12 -6 -22 -18z"/>
<path d="M2248 1573 c7 -3 16 -2 19 1 4 3 -2 6 -13 5 -11 0 -14 -3 -6 -6z"/>
<path d="M2483 1573 c9 -2 23 -2 30 0 6 3 -1 5 -18 5 -16 0 -22 -2 -12 -5z"/>
<path d="M2558 1573 c7 -3 16 -2 19 1 4 3 -2 6 -13 5 -11 0 -14 -3 -6 -6z"/>
<path d="M2390 1555 c0 -8 4 -15 10 -15 5 0 7 7 4 15 -4 8 -8 15 -10 15 -2 0
-4 -7 -4 -15z"/>
<path d="M2288 1553 c6 -2 18 -2 25 0 6 3 1 5 -13 5 -14 0 -19 -2 -12 -5z"/>
<path d="M2428 1553 c6 -2 18 -2 25 0 6 3 1 5 -13 5 -14 0 -19 -2 -12 -5z"/>
<path d="M1725 1540 c-3 -6 1 -7 9 -4 18 7 21 14 7 14 -6 0 -13 -4 -16 -10z"/>
<path d="M2298 1533 c7 -3 16 -2 19 1 4 3 -2 6 -13 5 -11 0 -14 -3 -6 -6z"/>
<path d="M1870 1423 c0 -28 206 -223 300 -285 225 -147 456 -218 715 -218 382
0 709 156 973 464 17 21 32 42 32 46 0 5 -56 9 -125 9 l-125 2 -63 -60 c-88
-84 -134 -121 -198 -163 -240 -155 -554 -222 -812 -173 -91 17 -265 73 -328
105 -54 28 -170 106 -224 151 -49 41 -125 121 -125 132 0 4 -4 7 -10 7 -5 0
-10 -8 -10 -17z"/>
<path d="M2238 1283 c7 -3 16 -2 19 1 4 3 -2 6 -13 5 -11 0 -14 -3 -6 -6z"/>
<path d="M3150 1200 c0 -5 5 -10 10 -10 6 0 10 5 10 10 0 6 -4 10 -10 10 -5 0
-10 -4 -10 -10z"/>
<path d="M2458 1188 c9 -9 15 -9 24 0 9 9 7 12 -12 12 -19 0 -21 -3 -12 -12z"/>
<path d="M2510 1190 c0 -5 7 -10 16 -10 8 0 12 5 9 10 -3 6 -10 10 -16 10 -5
0 -9 -4 -9 -10z"/>
<path d="M2572 1191 c-11 -7 -10 -10 3 -15 22 -8 22 -8 22 9 0 17 -6 18 -25 6z"/>
<path d="M2660 1179 c0 -6 -7 -8 -16 -5 -8 3 -12 2 -9 -4 3 -6 -2 -10 -12 -11
-16 0 -16 -1 2 -10 26 -12 -50 -5 -119 10 -64 14 -72 6 -9 -9 105 -25 143 -28
163 -10 11 10 20 23 20 30 0 7 8 10 19 7 10 -2 25 -1 32 4 9 6 -1 9 -28 9 -25
0 -43 -5 -43 -11z"/>
<path d="M3050 1174 c-19 -7 -43 -13 -52 -13 -10 -1 -18 -5 -18 -11 0 -14 60
-1 95 21 34 21 26 22 -25 3z"/>
<path d="M2758 1162 c-21 -2 -38 -7 -38 -13 0 -10 63 -11 100 0 l25 7 -25 5
c-14 2 -42 3 -62 1z"/>
<path d="M2924 1155 c-4 -9 -20 -15 -43 -16 -20 -1 -47 -5 -61 -9 -21 -7 -19
-8 16 -9 59 -1 104 9 104 25 0 7 8 15 18 17 12 4 11 5 -6 6 -12 0 -25 -6 -28
-14z"/>
<path d="M2690 1130 c8 -5 24 -10 35 -10 17 0 17 2 5 10 -8 5 -24 10 -35 10
-17 0 -17 -2 -5 -10z"/>
</g>
</svg>
